<svg width="112" height="112" viewBox="0 0 112 112" fill="none" xmlns="http://www.w3.org/2000/svg">
<path fill-rule="evenodd" clip-rule="evenodd" d="M56 112C86.9279 112 112 86.9279 112 56C112 25.0721 86.9279 0 56 0C25.0721 0 0 25.0721 0 56C0 86.9279 25.0721 112 56 112ZM45.441 38L27 70.5599L30.8251 72.8111L38.3574 59.5119H53.3177C53.5733 61.8811 54.1319 63.989 54.9934 65.8355C56.2497 68.4609 58.0558 70.478 60.4114 71.8868C62.7985 73.2956 65.7038 74 69.1274 74C71.5145 74 73.6346 73.8399 75.4877 73.5197C77.3723 73.2316 79.2097 72.7833 81 72.175V55.0775H75.4195V55.0094H58.4772C58.6147 52.8831 59.071 51.0168 59.8461 49.4103C60.8197 47.4252 62.2017 45.9044 63.9921 44.8478C65.8138 43.7592 67.9653 43.2149 70.4466 43.2149C72.017 43.2149 73.509 43.407 74.9224 43.7912C76.3672 44.1434 77.6707 44.5917 78.8328 45.136L80.6702 40.8136C79.2254 40.1732 77.6549 39.6769 75.9589 39.3247C74.2628 38.9405 72.4882 38.7484 70.635 38.7484C66.9288 38.7484 63.7722 39.4848 61.1652 40.9576C58.5897 42.3984 56.6109 44.4316 55.2289 47.057C54.0254 49.3436 53.3459 51.9944 53.1905 55.0094H40.9075L49.2661 40.2513L45.441 38ZM58.6425 59.5119H68.8447V59.544H75.9589V68.8611C75.4249 68.9572 74.8596 69.0693 74.2628 69.1973C73.6974 69.2934 73.0692 69.3894 72.3782 69.4855C71.6872 69.5495 70.8863 69.5815 69.9755 69.5815C67.2429 69.5815 65.0285 69.0212 63.3325 67.9006C61.6364 66.78 60.3957 65.2271 59.6105 63.242C59.1567 62.0949 58.8341 60.8515 58.6425 59.5119Z" fill="white"/>
</svg>
