<svg width="66" height="66" viewBox="0 0 66 66" fill="none" xmlns="http://www.w3.org/2000/svg">
<path fill-rule="evenodd" clip-rule="evenodd" d="M33 66C51.2254 66 66 51.2254 66 33C66 14.7746 51.2254 0 33 0C14.7746 0 0 14.7746 0 33C0 51.2254 14.7746 66 33 66ZM27.2695 22L16 41.8977L18.3376 43.2735L22.9406 35.1462H32.083C32.2392 36.594 32.5806 37.8821 33.1071 39.0106C33.8748 40.615 34.9785 41.8477 36.4181 42.7086C37.8769 43.5695 39.6523 44 41.7445 44C43.2033 44 44.4989 43.9022 45.6314 43.7065C46.7831 43.5304 47.9059 43.2565 49 42.8847V32.4362H45.5897V32.3947H35.2361C35.3201 31.0953 35.599 29.9547 36.0726 28.973C36.6676 27.7599 37.5122 26.8305 38.6063 26.1848C39.7195 25.5195 41.0343 25.1869 42.5507 25.1869C43.5104 25.1869 44.4221 25.3043 45.2859 25.5391C46.1688 25.7543 46.9654 26.0282 47.6756 26.3609L48.7985 23.7194C47.9155 23.3281 46.9558 23.0248 45.9193 22.8096C44.8828 22.5748 43.7983 22.4574 42.6659 22.4574C40.4009 22.4574 38.4719 22.9074 36.8788 23.8074C35.3048 24.6879 34.0956 25.9304 33.251 27.5349C32.5155 28.9322 32.1003 30.5521 32.0053 32.3947H24.499L29.6071 23.3758L27.2695 22ZM35.3371 35.1462H41.5718V35.1658H45.9193V40.8596C45.593 40.9183 45.2475 40.9868 44.8828 41.065C44.5373 41.1237 44.1534 41.1824 43.7311 41.2411C43.3089 41.2803 42.8194 41.2998 42.2628 41.2998C40.5929 41.2998 39.2397 40.9574 38.2032 40.2726C37.1667 39.5878 36.4085 38.6388 35.9286 37.4257C35.6514 36.7247 35.4542 35.9648 35.3371 35.1462Z" fill="#A64D78"/>
</svg>
